# xmcd CD database file generated by LOLA_Freedb v0.9beta0
# 
# Track frame offsets:
#      150
#      14062
#      30181
#      49125
#      62657
#      75320
#      88429
#      102147
#      116763
#      132318
#      150296
#      163587
#      181334
#      208736
# 
# Disc length: 3449 seconds
# 
# Revision: 2 
# Processed by: cddbd v1.5.2PL0 Copyright (c) Steve Scherf et al.
# Submitted via: LOLA_Freedb v0.9beta0
# 
DISCID=b00d770e
DTITLE=Jill Johnson - Being Who You Are
DYEAR=2005
DGENRE=Country
TTITLE0=Jill Johnson - God Bless A Girl In Love
TTITLE1=So Much Love To Make
TTITLE2=A Little Bit More
TTITLE3=Baby You're Mine
TTITLE4=Ringing Bells
TTITLE5=When Being Who You Are
TTITLE6=The Heartache Won't Be Mine
TTITLE7=I Don't Wanna Be That Girl
TTITLE8=You Can't Have It All
TTITLE9=Some People Are Just Not Cool
TTITLE10=(I'm Not) In Love With You
TTITLE11=Without Your Love
TTITLE12=Redneck Woman
TTITLE13=Data Track
EXTD=
EXTT0=
EXTT1=
EXTT2=
EXTT3=
EXTT4=
EXTT5=
EXTT6=
EXTT7=
EXTT8=
EXTT9=
EXTT10=
EXTT11=
EXTT12=
EXTT13=
PLAYORDER=
